<?xml version="1.0" encoding="UTF-8"?>
<svg id="Layer_2" data-name="Layer 2" xmlns="http://www.w3.org/2000/svg" xmlns:xlink="http://www.w3.org/1999/xlink" viewBox="0 0 500 500">
  <defs>
    <style>
      .cls-1 {
        fill: url(#linear-gradient);
        stroke: #487bbe;
        stroke-linecap: round;
        stroke-width: 7px;
      }

      .cls-1, .cls-2 {
        stroke-linejoin: round;
      }

      .cls-2 {
        fill: url(#linear-gradient-2);
        stroke: #d36727;
        stroke-width: 6px;
      }

      .cls-3 {
        fill: #bcbec0;
      }
    </style>
    <linearGradient id="linear-gradient" x1="45.43" y1="198.14" x2="389.52" y2="198.14" gradientUnits="userSpaceOnUse">
      <stop offset="0" stop-color="#0b77be"/>
      <stop offset="1" stop-color="#7dd0dd"/>
    </linearGradient>
    <linearGradient id="linear-gradient-2" x1="293.41" y1="328.65" x2="461.9" y2="328.65" gradientUnits="userSpaceOnUse">
      <stop offset="0" stop-color="#f89b57"/>
      <stop offset="1" stop-color="#ef4132"/>
    </linearGradient>
  </defs>
  <polygon class="cls-3" points="454.57 496.45 395.64 259 367.95 392.3 396.93 369.93 406.18 438.4 341.06 411.02 382.19 223.55 241.39 243.33 344.22 34.89 38.1 166.6 169.8 214.06 235.06 167.79 187.6 290 316.93 259 286.08 424.08 454.57 496.45"/>
  <g>
    <polygon class="cls-1" points="45.43 135.25 351.55 3.55 248.72 211.98 389.52 192.2 293.41 392.73 324.26 227.65 194.93 258.65 242.39 136.44 177.13 182.71 45.43 135.25"/>
    <polygon class="cls-2" points="375.28 360.95 402.97 227.65 461.9 465.11 293.41 392.73 389.52 192.2 348.39 379.68 413.51 407.05 404.26 338.58 375.28 360.95"/>
  </g>
</svg>